
<svg version="1.1" id="Layer_1" xmlns="http://www.w3.org/2000/svg" xmlns:xlink="http://www.w3.org/1999/xlink" x="0px" y="0px"
	 viewBox="0 0 201.128 170.267" style="enable-background:new 0 0 201.128 170.267;" xml:space="preserve">
<defs>
<style type="text/css">
	.st0{fill:#FFFFFF;stroke:#000000;stroke-width:2;stroke-miterlimit:10;}

	#logo{
	stroke-dasharray: 800;
	stroke-dashoffset:0;
	-webkit-animation: dash 2s linear forwards;
	-o-animation: dash 2s linear forwards;
	-moz-animation: dash 2s linear forwards;
	}
	@-webkit-keyframes dash {
	from{
		stroke-dashoffset: 800;
		}
		to {
		stroke-dashoffset: 0;
		}
	}
	}
</style>
</defs>
<path id="logo" d="M75.323,45.377c-0.464,1.728-1.009,3.919-3.12,4.509c-1.79,0.5-2.569-0.53-2.803-1.931
	c-0.225-1.343,0.178-2.668,0.301-4.015c0.167-1.823,0.333-3.648,0.547-5.466c0.404-3.437,0.966-6.857,1.289-10.303
	c0.349-3.731,0.455-7.22-1.168-10.714c-0.848-1.826-4.419-0.97-4.212,0.987c-0.018,0.107-0.039,0.214-0.056,0.321
	c-3.305-1.174-7.214-0.624-10.282,1.147c-4.457,2.572-6.611,7.265-7.345,11.887c-0.678,4.268-0.912,10.766,5.04,11.925
	c5.373,1.047,7.993-4.751,9.744-8.317c0.57-1.159,1.111-2.331,1.63-3.511c-0.607,4.428-1.707,9.153-1.041,13.613
	c0.458,3.067,1.912,7.147,6.018,7.169c3.815,0.021,5.313-4.454,6.167-7.122C76.166,45.139,75.436,44.955,75.323,45.377z
	 M62.365,32.221c-0.984,2.105-1.939,4.423-3.4,6.295c-0.721,0.925-1.877,2.014-3.284,1.596c-0.805-0.24-1.216-1.088-1.372-1.799
	c-0.396-1.806-0.06-3.97,0.282-5.768c0.371-1.949,0.954-3.87,2.119-5.552c1.879-2.712,5.58-4.07,8.711-2.36
	c0.01,0.005,0.02,0.009,0.029,0.014c-0.085,0.223-0.17,0.445-0.249,0.667C64.363,27.651,63.423,29.96,62.365,32.221z"/>
<path class="st0" d="M49.522,9.285c-0.375-3.092-2.161-6.353-5.97-6.411c-6.551-0.099-8.98,6.63-10.435,11.39
	c-0.601,1.965-1.183,3.945-1.721,5.938c-0.015-0.264-0.028-0.528-0.043-0.792c-0.212-3.728,0.168-8.165-1.132-11.727
	c-1.204-3.3-4.774-4.78-8.229-3.525c-6.447,2.342-8.479,10.089-9.781,15.671c-0.167,0.715-0.321,1.431-0.476,2.147
	c-0.046-2.268-0.081-4.537-0.102-6.805c-0.029-3.215,0.236-6.563-0.702-9.691c-0.954-3.183-5.509-2.881-6.601,0
	c-1.104,2.914-1.011,6.193-1.086,9.249c-0.076,3.097-0.072,6.188,0.001,9.285c0.145,6.19,0.503,12.372,1.042,18.542
	c0.188,2.15,1.832,3.995,4.278,3.995c2.167,0,4.471-1.832,4.278-3.995c-0.143-1.608-0.272-3.216-0.389-4.825
	c0.699-4.571,1.515-9.132,2.569-13.637c0.659-2.817,1.353-5.655,2.354-8.386c0.474-1.293,1.048-2.544,1.803-3.717
	c0.832-1.293,1.866-1.9,2.948-2.866c0.115-0.022,0.23-0.044,0.345-0.066c0.043,0.292,0.146,0.656,0.159,0.854
	c0.109,1.68,0.017,3.381,0.085,5.065c0.131,3.25,0.262,6.5,0.4,9.75c0.132,3.103,0.299,6.204,0.454,9.306
	c0.162,3.246-0.263,7.211,0.875,10.298c1.219,3.304,6.708,3.777,7.701,0c1.012-3.846,0.047-8.567-0.142-12.513
	c-0.023-0.486-0.05-0.971-0.073-1.457c0.984-3.773,1.988-7.546,3.352-11.212c0.891-2.396,1.771-4.857,2.962-7.139
	c0.49-0.938,1.035-1.927,1.938-2.579c0.246-0.178,0.816-0.592,1.065-0.624c-0.093,0.012-0.123-1.19,0.065,0.313
	c0.285,2.273-0.009,4.738-0.028,7.028c-0.023,2.765-0.071,5.529-0.144,8.293c-0.077,2.909-0.181,5.818-0.302,8.726
	c-0.124,2.994-0.751,6.005,0.618,8.787c1.247,2.532,5.272,2.136,6.635,0c1.159-1.815,1.068-3.686,1.167-5.734
	c0.091-1.889,0.173-3.78,0.237-5.67c0.119-3.49,0.179-6.982,0.206-10.473C49.733,16.507,49.953,12.836,49.522,9.285z"/>
<path class="st0" d="M186.481,20.8c-0.274-2.221-1.578-4.564-4.359-4.605c-4.784-0.071-6.557,4.762-7.62,8.182
	c-0.439,1.411-0.864,2.834-1.257,4.265c-0.011-0.19-0.021-0.379-0.032-0.569c-0.155-2.678,0.123-5.865-0.827-8.424
	c-0.88-2.371-3.486-3.433-6.009-2.532c-4.708,1.682-6.192,7.247-7.142,11.258c-0.122,0.514-0.235,1.028-0.348,1.543
	c-0.034-1.629-0.059-3.259-0.074-4.889c-0.022-2.31,0.172-4.714-0.512-6.961c-0.697-2.287-4.023-2.07-4.82,0
	c-0.806,2.093-0.738,4.449-0.793,6.644c-0.055,2.224-0.052,4.445,0.001,6.67c0.106,4.446,0.367,8.887,0.761,13.32
	c0.137,1.545,1.338,2.869,3.124,2.869c1.582,0,3.265-1.316,3.124-2.869c-0.104-1.155-0.199-2.31-0.284-3.466
	c0.51-3.284,1.107-6.56,1.876-9.796c0.481-2.023,0.988-4.062,1.719-6.024c0.346-0.929,0.765-1.827,1.317-2.67
	c0.607-0.929,1.362-1.365,2.153-2.059c0.084-0.016,0.168-0.032,0.252-0.048c0.031,0.21,0.106,0.471,0.116,0.613
	c0.08,1.207,0.013,2.429,0.062,3.638c0.095,2.335,0.191,4.669,0.292,7.004c0.096,2.229,0.218,4.457,0.332,6.685
	c0.118,2.332-0.192,5.18,0.639,7.397c0.89,2.374,4.898,2.713,5.624,0c0.739-2.763,0.034-6.154-0.104-8.989
	c-0.017-0.349-0.036-0.698-0.054-1.047c0.719-2.71,1.452-5.42,2.448-8.054c0.651-1.721,1.293-3.489,2.163-5.129
	c0.357-0.674,0.755-1.385,1.415-1.853c0.18-0.128,0.596-0.426,0.778-0.448c-0.068,0.009-0.09-0.855,0.048,0.225
	c0.208,1.633-0.007,3.403-0.02,5.049c-0.017,1.986-0.052,3.972-0.105,5.957c-0.056,2.09-0.132,4.179-0.22,6.268
	c-0.09,2.151-0.549,4.313,0.451,6.312c0.91,1.819,3.849,1.534,4.845,0c0.846-1.304,0.78-2.648,0.852-4.119
	c0.066-1.357,0.126-2.715,0.173-4.073c0.087-2.507,0.13-5.015,0.15-7.523C186.635,25.988,186.796,23.35,186.481,20.8z"/>
<path class="st0" d="M133.167,24.449c-0.274-2.221-1.578-4.564-4.359-4.605c-4.784-0.071-6.557,4.762-7.62,8.182
	c-0.439,1.411-0.864,2.834-1.257,4.265c-0.011-0.19-0.021-0.379-0.032-0.569c-0.155-2.678,0.123-5.865-0.827-8.424
	c-0.88-2.371-3.486-3.433-6.009-2.532c-4.707,1.682-6.192,7.247-7.142,11.258c-0.122,0.514-0.235,1.028-0.348,1.543
	c-0.034-1.629-0.059-3.259-0.074-4.889c-0.022-2.31,0.172-4.714-0.512-6.961c-0.697-2.287-4.023-2.07-4.82,0
	c-0.806,2.093-0.738,4.449-0.793,6.644c-0.055,2.224-0.052,4.445,0.001,6.67c0.106,4.446,0.367,8.887,0.761,13.32
	c0.137,1.545,1.338,2.869,3.124,2.869c1.582,0,3.265-1.316,3.124-2.869c-0.104-1.155-0.199-2.31-0.284-3.466
	c0.51-3.284,1.107-6.56,1.876-9.796c0.481-2.023,0.988-4.062,1.719-6.024c0.346-0.929,0.765-1.827,1.317-2.67
	c0.607-0.929,1.362-1.365,2.153-2.059c0.084-0.016,0.168-0.032,0.252-0.048c0.031,0.21,0.106,0.471,0.116,0.613
	c0.08,1.207,0.013,2.429,0.062,3.638c0.095,2.335,0.191,4.669,0.292,7.004c0.096,2.229,0.218,4.457,0.332,6.685
	c0.118,2.332-0.192,5.18,0.639,7.397c0.89,2.374,4.898,2.713,5.624,0c0.739-2.763,0.034-6.154-0.104-8.989
	c-0.017-0.349-0.036-0.698-0.054-1.047c0.719-2.71,1.452-5.42,2.448-8.054c0.651-1.721,1.293-3.489,2.163-5.129
	c0.357-0.674,0.755-1.385,1.415-1.853c0.18-0.128,0.596-0.426,0.778-0.448c-0.068,0.009-0.09-0.855,0.048,0.225
	c0.208,1.633-0.007,3.403-0.02,5.049c-0.017,1.986-0.052,3.972-0.105,5.957c-0.056,2.09-0.132,4.179-0.22,6.268
	c-0.09,2.151-0.549,4.313,0.451,6.312c0.91,1.819,3.849,1.534,4.845,0c0.846-1.304,0.78-2.648,0.852-4.119
	c0.066-1.357,0.126-2.715,0.173-4.073c0.087-2.507,0.13-5.015,0.15-7.523C133.321,29.637,133.481,27,133.167,24.449z"/>
<path class="st0" d="M89.322,66.448c-4.849,0.974-6.393,5.786-7.604,9.584c-0.177,0.554-0.353,1.117-0.525,1.686
	c-0.021-1.15-0.048-2.301-0.088-3.451c-0.072-2.055-0.004-4.357-0.878-6.279c-0.935-2.054-4.198-2.438-4.986,0
	c-0.651,2.014-0.408,4.205-0.34,6.279c0.065,1.988,0.1,3.977,0.107,5.966c0.014,4.084-0.101,8.166-0.326,12.244
	c-0.076,1.378,1.051,2.291,2.294,2.767c0.541,0.207,1.113,0.138,1.661,0c1.377-0.346,2.227-1.5,2.294-2.767
	c0.065-1.23,0.116-2.46,0.16-3.691c0.955-3.036,1.639-6.154,2.693-9.166c0.643-1.837,1.298-3.69,2.095-5.476
	c0.338-0.757,0.724-1.515,1.221-2.196c0.288-0.395,0.617-0.783,1.016-1.091c0.124-0.096,0.757-0.39,0.968-0.478
	c0.004,0.005,0.007,0.008,0.012,0.013c0.009,0.123,0.19,0.356,0.233,0.496c0.202,0.661,0.081,1.572,0.082,2.245
	c0.004,2.11-0.03,4.224-0.104,6.333c-0.074,2.111-0.207,4.219-0.4,6.323c-0.193,2.107-0.993,4.636-0.326,6.676
	c0.708,2.164,3.908,2.556,5.195,0.624c0.89-1.337,0.898-2.932,1.07-4.462c0.142-1.26,0.262-2.522,0.361-3.785
	c0.215-2.735,0.344-5.483,0.34-8.226C95.542,72.859,95.735,65.16,89.322,66.448z"/>
<path class="st0" d="M166.707,130.757c-4.849,0.974-6.393,5.786-7.604,9.584c-0.177,0.554-0.353,1.117-0.525,1.686
	c-0.021-1.15-0.048-2.301-0.088-3.451c-0.072-2.055-0.004-4.357-0.878-6.279c-0.935-2.054-4.197-2.438-4.986,0
	c-0.651,2.014-0.408,4.205-0.34,6.279c0.065,1.988,0.1,3.977,0.107,5.966c0.014,4.084-0.101,8.166-0.326,12.244
	c-0.076,1.378,1.051,2.292,2.294,2.767c0.541,0.207,1.113,0.138,1.661,0c1.377-0.346,2.227-1.5,2.294-2.767
	c0.065-1.23,0.116-2.46,0.16-3.691c0.955-3.036,1.639-6.154,2.693-9.166c0.643-1.837,1.298-3.69,2.095-5.476
	c0.338-0.757,0.724-1.515,1.221-2.196c0.288-0.395,0.617-0.783,1.016-1.091c0.124-0.096,0.757-0.39,0.968-0.478
	c0.004,0.005,0.007,0.008,0.012,0.013c0.009,0.123,0.19,0.356,0.233,0.496c0.202,0.661,0.081,1.572,0.082,2.245
	c0.004,2.11-0.03,4.224-0.104,6.333c-0.074,2.111-0.207,4.219-0.4,6.323c-0.193,2.107-0.993,4.636-0.326,6.676
	c0.708,2.164,3.908,2.556,5.195,0.624c0.89-1.337,0.898-2.932,1.07-4.462c0.142-1.26,0.262-2.522,0.361-3.785
	c0.215-2.735,0.344-5.483,0.34-8.226C172.927,137.168,173.119,129.468,166.707,130.757z"/>
<path class="st0" d="M108.144,131.14c-0.802,1.302-1.85,2.914-3.268,3.891c-0.179-2.051-1.176-4.663-3.8-4.794
	c-2.45-0.122-4.422,2.083-4.259,4.233c0.227,3.004,3.593,4.72,6.602,4.282c-0.109,1.292-0.323,2.567-0.529,3.688
	c-0.442,2.409-0.987,4.901-2.35,7.028c-1.139,1.778-3.28,4.778-5.659,5.202c-2.784,0.496-3.267-3.718-3.598-5.424
	c-0.548-2.819-1.142-5.628-1.498-8.476c-0.389-3.111-0.352-6.33-1.034-9.397c-0.538-2.419-5.027-2.542-5.458,0
	c-0.626,3.694-0.031,7.569,0.504,11.253c0.522,3.593,0.985,7.48,2.604,10.822c1.318,2.719,4.215,4.751,7.57,4.475
	c2.97-0.244,5.727-2.746,6.943-5.132c1.277-2.507,1.931-5.413,2.482-8.122c0.303-1.492,0.518-2.997,0.839-4.486
	c0.123-0.569,0.251-1.135,0.363-1.702c3.098-0.965,4.906-3.636,5.874-6.439C110.911,130.773,108.852,129.991,108.144,131.14z"/>
<path class="st0" d="M156.669,19.45c-0.802,1.302-1.85,2.914-3.268,3.891c-0.179-2.051-1.176-4.663-3.8-4.794
	c-2.45-0.122-4.422,2.083-4.259,4.233c0.227,3.004,3.593,4.72,6.602,4.282c-0.109,1.292-0.323,2.567-0.529,3.688
	c-0.442,2.409-0.987,4.901-2.35,7.028c-1.139,1.778-3.28,4.778-5.659,5.202c-2.784,0.496-3.267-3.718-3.598-5.424
	c-0.548-2.819-1.142-5.628-1.498-8.476c-0.389-3.111-0.352-6.33-1.034-9.397c-0.538-2.419-5.027-2.542-5.458,0
	c-0.626,3.694-0.031,7.569,0.504,11.253c0.522,3.593,0.985,7.48,2.604,10.822c1.318,2.719,4.215,4.751,7.57,4.475
	c2.97-0.244,5.727-2.746,6.943-5.132c1.277-2.507,1.931-5.413,2.482-8.122c0.303-1.492,0.518-2.997,0.839-4.486
	c0.123-0.569,0.251-1.135,0.363-1.702c3.098-0.965,4.906-3.636,5.874-6.439C159.436,19.082,157.377,18.3,156.669,19.45z"/>
<g>
	<path class="st0" d="M133.305,149.78c-0.779,0.918-1.255,1.829-1.798,2.868c-0.403,0.771-1.271,2.439-2.481,2.187
		c-2.089-0.435-1.3-5.137-1.124-6.433c0.342-2.522,0.976-5.024,1.735-7.465c0.421-1.355,0.897-2.693,1.423-4.016
		c0.541-1.361,1.169-2.697,0.58-4.141c-0.587-1.44-2.051-1.968-3.564-1.332c-1.985,0.835-2.602,3.078-3.301,4.818
		c-0.72,1.793-1.355,3.61-1.799,5.479c-0.905,3.809-1.033,7.814,0.018,11.617c0.817,2.955,3.55,5.954,7.224,4.936
		c3.582-0.993,4.161-4.739,4.828-7.588C135.242,149.874,133.999,148.963,133.305,149.78z"/>
	<path class="st0" d="M133.73,122.044c-1.187-0.684-2.814-0.83-4.06-0.181c-1.241,0.647-1.974,1.807-2.037,3.106
		c-0.038,0.784,0.423,1.618,0.985,2.184c0.097,0.097,0.198,0.184,0.303,0.262c0.279,0.508,0.692,0.951,1.222,1.238
		c2.649,1.434,5.523-0.7,5.542-3.287C135.695,124.04,134.956,122.751,133.73,122.044z"/>
</g>
<g>
	<path class="st0" d="M99.313,41.845c-0.779,0.918-1.255,1.829-1.798,2.868c-0.403,0.771-1.271,2.439-2.481,2.187
		c-2.089-0.435-1.3-5.137-1.124-6.433c0.342-2.522,0.976-5.024,1.735-7.465c0.421-1.355,0.897-2.693,1.423-4.016
		c0.541-1.361,1.169-2.697,0.58-4.141c-0.587-1.44-2.051-1.968-3.564-1.332c-1.985,0.835-2.602,3.078-3.301,4.818
		c-0.72,1.793-1.355,3.61-1.799,5.479c-0.905,3.809-1.033,7.814,0.018,11.617c0.817,2.955,3.55,5.954,7.224,4.936
		c3.582-0.993,4.161-4.739,4.828-7.588C101.249,41.94,100.007,41.028,99.313,41.845z"/>
	<path class="st0" d="M99.737,14.11c-1.187-0.684-2.814-0.83-4.06-0.181c-1.241,0.647-1.974,1.807-2.037,3.106
		c-0.038,0.784,0.423,1.618,0.985,2.184c0.097,0.097,0.198,0.184,0.303,0.262c0.279,0.508,0.692,0.951,1.222,1.238
		c2.649,1.434,5.523-0.7,5.542-3.287C101.703,16.106,100.964,14.816,99.737,14.11z"/>
</g>
<path class="st0" d="M135.218,69.515c-0.161,0.351-0.338,0.691-0.529,1.022c0.039-0.521,0.074-1.042,0.106-1.562
	c0.128-2.096,0.074-4.175,0.01-6.273c-0.057-1.863-0.122-3.857-1.204-5.491c-0.684-1.032-2.859-0.708-2.684,0.668
	c-0.079,0.97-0.251,1.928-0.464,2.881c-0.881-1.045-2.176-1.787-3.756-2.129c-3.017-0.652-6.076,0.373-8.352,2.197
	c-2.342,1.876-3.759,4.599-4.362,7.364c-0.552,2.532-0.807,5.69,0.156,8.171c0.988,2.545,3.49,4.236,6.471,3.855
	c2.846-0.364,4.918-2.199,6.332-4.399c0.462-0.718,0.877-1.469,1.264-2.237c-0.09,0.869-0.179,1.738-0.272,2.606
	c-0.047,0.443-0.092,0.885-0.138,1.328c-1.689,1.304-3.398,2.586-4.884,4.002c-4.335,4.132-7.439,10.605-6.485,16.43
	c0.479,2.927,2.544,5.627,5.708,6.546c3.269,0.949,6.664-0.576,8.338-3.228c1.655-2.622,1.714-5.836,2.015-8.769
	c0.376-3.659,0.755-7.318,1.127-10.978c0.223-2.192,0.466-4.389,0.685-6.587c1.276-1.448,2.335-3.042,2.998-4.892
	C137.742,68.798,135.738,68.378,135.218,69.515z M126.716,70.022c-0.934,1.686-1.904,3.741-3.417,5.068
	c-0.969,0.85-2.74,1.489-3.536,0.163c-0.724-1.205-0.227-3.166-0.004-4.423c0.306-1.721,0.682-3.506,1.868-4.923
	c1.891-2.259,4.923-2.227,7.341-0.663C128.327,66.878,127.576,68.47,126.716,70.022z M124.352,99.079
	c-2.281,0.719-3.67-2.16-4.031-3.652c-1.35-5.582,2.434-10.483,6.686-14.035c0.143-0.12,0.289-0.239,0.433-0.358
	c-0.463,4.728-0.892,9.461-1.452,14.178C125.863,96.273,125.688,98.658,124.352,99.079z"/>
<path class="st0" d="M82.416,137.928l0.337-4.457c2.938-2.83,4.578-7.206,5.269-10.68c0.548-2.758,0.597-5.634-0.453-8.302
	c-0.903-2.294-2.967-5.369-6.146-4.582c-3.551,0.879-3.471,5.933-3.711,8.514c-0.371,3.981-0.643,7.969-0.941,11.956
	c-0.29,3.88-0.581,7.761-0.871,11.641c-0.268,3.585-0.941,7.353-0.681,10.945c0.246,3.4,2.115,7.16,6.436,7.095
	c3.7-0.055,6.677-3.526,5.081-6.716c-0.609-1.218-2.652-0.809-3.001,0.36c-0.157,0.528-0.865,1.606-1.598,1.295
	c-0.999-0.424-0.755-3.035-0.72-3.755C81.628,146.803,82.081,142.362,82.416,137.928z M85.997,118.319
	c0.215,2.177-0.178,4.369-0.793,6.466c-0.514,1.754-1.234,3.47-2.178,5.071c0.137-1.819,0.275-3.637,0.412-5.456
	c0.174-2.306,0.35-4.612,0.459-6.922c0.049-1.044,0.08-2.101,0.054-3.146c-0.004-0.148-0.029-0.311-0.044-0.473
	C85.274,114.683,85.883,117.169,85.997,118.319z"/>
<path class="st0" d="M74.192,133.974c1.288-1.825,1.909-4.115,1.931-6.237c0.012-1.158-1.852-1.386-2.19-0.272
	c-0.393,1.295-0.677,2.735-1.235,4.025c-1.016-1.216-2.362-2.168-4.006-2.548c-1.621-0.375-3.333-0.053-4.517,0.813
	c-0.547-0.628-1.466-1.012-2.503-0.837c-4.326,0.731-6.6,4.772-7.829,8.303c-1.336,3.841-1.541,8.089-0.623,12.029
	c0.803,3.449,2.909,7.645,6.91,8.731c3.822,1.038,7.436-1.374,9.898-3.827c5.004-4.985,6.059-11.894,4.724-18.382
	C74.629,135.174,74.439,134.567,74.192,133.974z M65.171,132.348c0.276-1.637,2.461-1.879,3.809-1.346
	c1.119,0.443,2.025,1.252,2.71,2.172c-0.354,0.425-0.774,0.809-1.293,1.127C68.57,135.424,64.697,135.159,65.171,132.348z
	 M73.421,140.482c-0.523,4.077-2.448,9.222-6.123,11.814c-1.67,1.178-4.32,2.024-5.963,0.411c-1.518-1.491-1.96-3.861-2.278-5.802
	c-0.789-4.823,0.614-9.341,3.785-13.045c0.811,2.769,4.245,4.124,7.204,3.191c1.118-0.353,2.066-0.925,2.864-1.64
	C73.527,137.021,73.65,138.699,73.421,140.482z"/>
<path class="st0" d="M153.84,140.087c1.288-1.825,1.909-4.115,1.931-6.237c0.012-1.158-1.852-1.386-2.19-0.272
	c-0.393,1.295-0.677,2.735-1.235,4.025c-1.016-1.216-2.362-2.168-4.006-2.548c-1.621-0.375-3.333-0.053-4.517,0.813
	c-0.547-0.628-1.466-1.012-2.503-0.837c-4.326,0.731-6.6,4.772-7.829,8.303c-1.336,3.841-1.541,8.089-0.623,12.029
	c0.803,3.449,2.909,7.645,6.91,8.731c3.822,1.038,7.436-1.374,9.898-3.827c5.004-4.985,6.059-11.894,4.724-18.382
	C154.277,141.287,154.087,140.681,153.84,140.087z M144.82,138.462c0.276-1.637,2.461-1.879,3.809-1.346
	c1.119,0.443,2.025,1.252,2.71,2.172c-0.354,0.425-0.774,0.809-1.293,1.127C148.218,141.537,144.346,141.273,144.82,138.462z
	 M153.069,146.595c-0.523,4.077-2.448,9.222-6.123,11.814c-1.67,1.178-4.32,2.024-5.963,0.411c-1.518-1.491-1.96-3.861-2.278-5.802
	c-0.789-4.823,0.614-9.341,3.785-13.045c0.811,2.769,4.245,4.124,7.204,3.191c1.118-0.353,2.066-0.925,2.864-1.64
	C153.176,143.135,153.298,144.813,153.069,146.595z"/>
<path class="st0" d="M113.485,88.234c1.654-3.007,3.483-5.929,5.297-8.856c1.469-2.372-1.586-5.571-4.262-3.915
	c-2.985,1.847-6.262,4.042-10.021,4.027c-0.316-0.001-0.627-0.023-0.932-0.058c0.446-1.904,0.582-3.963-0.469-5.66
	c-1.119-1.806-3.594-2.917-5.757-2.042c-2.509,1.015-3.478,3.929-3.066,6.259c0.462,2.615,2.444,4.836,4.986,6.026
	c0.226,0.106,0.452,0.201,0.678,0.291c-1.417,2.859-3.68,6.061-6.682,7.143c-0.583,0.21-0.368,0.979,0.261,0.868
	c2.49-0.44,4.248-2.238,5.706-4.035c0.882-1.087,1.655-2.251,2.309-3.468c2.333,0.57,4.688,0.407,6.978-0.182
	c-0.656,1.18-1.291,2.37-1.886,3.577c-1.888,3.826-3.559,8.052-3.07,12.328c0.395,3.458,2.901,5.119,6.607,4.678
	c3.495-0.416,5.384-3.748,6.186-6.59c0.181-0.641-0.89-1.116-1.209-0.468c-0.631,1.277-1.046,2.663-1.881,3.846
	c-0.913,1.293-2.928,3.013-4.779,2.408c-3.154-1.03-0.046-5.972,0.746-7.577C110.638,93.964,111.937,91.048,113.485,88.234z
	 M99.034,74.867c0.298-0.855,1.112-0.929,1.864-0.443c1.041,0.673,1.16,1.982,1.095,3.056c-0.03,0.499-0.098,0.999-0.19,1.497
	c-0.473-0.205-0.916-0.477-1.317-0.832C99.61,77.37,98.618,76.058,99.034,74.867z"/>
<path class="st0" d="M51.148,143.388c-1.591-4.777-4.636-8.864-8.197-12.545c0.149-0.433,0.262-0.878,0.336-1.332
	c0.393-2.437-0.554-5.112-3.157-6.16c-2.42-0.974-5.221,0.075-6.021,2.456c-1.151,3.426,1.585,5.917,3.838,8.29
	c0.059,0.062,0.116,0.125,0.174,0.187c-1.638,1.317-3.747,2.182-5.855,2.423c-0.15,0.017-0.216,0.23-0.039,0.265
	c2.537,0.511,5.04-0.121,7.031-1.448c1.596,1.789,3.055,3.663,4.241,5.723c2.57,4.462,4.247,11.49-0.991,14.973
	c-2.657,1.766-5.904,1.176-7.998-1.107c-1.267-1.381-0.848-3.607,0.015-5.071c0.948-1.607,2.608-2.543,4.538-2.855
	c0.43-0.069,0.335-0.759-0.104-0.707c-2.336,0.275-4.456,1.452-5.854,3.201c-1.61,2.016-1.492,4.364-0.987,6.71
	c1.296,6.013,9.608,6.938,14.416,3.902C52.439,156.566,53.094,149.229,51.148,143.388z M39.785,125.765
	c1.253,0.45,1.485,1.942,1.355,3.278c-0.415-0.398-0.832-0.792-1.255-1.181c-0.358-0.33-1.407-1.128-1.446-1.582
	C38.381,125.59,39.146,125.535,39.785,125.765z"/>
<path class="st0" d="M189.989,145.746c-1.591-4.777-4.636-8.864-8.197-12.545c0.149-0.433,0.262-0.878,0.336-1.332
	c0.393-2.437-0.554-5.112-3.157-6.16c-2.42-0.974-5.221,0.075-6.021,2.456c-1.151,3.426,1.585,5.917,3.838,8.29
	c0.059,0.062,0.116,0.125,0.174,0.187c-1.638,1.317-3.747,2.182-5.855,2.423c-0.15,0.017-0.216,0.23-0.039,0.265
	c2.537,0.511,5.04-0.121,7.031-1.448c1.596,1.789,3.055,3.663,4.241,5.723c2.57,4.462,4.247,11.49-0.991,14.973
	c-2.657,1.766-5.904,1.176-7.998-1.107c-1.267-1.381-0.848-3.607,0.015-5.071c0.948-1.607,2.608-2.543,4.538-2.855
	c0.43-0.069,0.335-0.759-0.104-0.707c-2.336,0.275-4.456,1.452-5.854,3.201c-1.61,2.016-1.492,4.364-0.987,6.71
	c1.296,6.013,9.608,6.938,14.416,3.902C191.279,158.924,191.934,151.587,189.989,145.746z M178.625,128.122
	c1.253,0.45,1.485,1.942,1.355,3.278c-0.415-0.398-0.832-0.792-1.255-1.181c-0.358-0.33-1.407-1.128-1.446-1.582
	C177.221,127.948,177.986,127.893,178.625,128.122z"/>
<path class="st0" d="M125.452,148.558c-0.04-0.47-0.856-0.653-0.963-0.12c-0.479,2.407-0.611,4.83-1.975,7.007
	c-0.469,0.748-0.961,1.429-1.823,1.407c-0.792-0.02-1.534-0.467-1.987-1.043c-1.046-1.332-1.121-3.095-1.228-4.662
	c-0.162-2.367-0.424-4.725-0.544-7.096c-0.189-3.727-0.191-7.459-0.039-11.186c0.672,0.135,1.33,0.331,1.953,0.578
	c1.41,0.561,2.333,1.374,3.91,1.541c1.82,0.193,2.423-1.783,1.862-2.98c-0.754-1.609-3.052-2.347-4.78-2.786
	c-0.89-0.226-1.798-0.349-2.711-0.383c0.346-4.291,1.06-8.543,1.384-12.834c0.223-2.954-4.712-3.454-5.535-0.688
	c-1.405,4.722-1.93,9.787-2.2,14.734c-1.905,0.844-3.638,2.099-4.732,3.635c-0.673,0.944,0.719,2.34,1.76,1.617
	c0.956-0.664,1.862-1.247,2.814-1.697c-0.204,5.624-0.096,11.338,0.621,16.928c0.569,4.433,2.497,10.139,8.541,9.676
	c2.049-0.157,3.698-1.614,4.313-3.366C124.959,154.379,125.675,151.147,125.452,148.558z"/>
<path class="st0" d="M90.965,25.056c0.583-0.514-0.18-1.462-0.876-1.043c-2.453,1.477-4.684,3.339-6.64,5.456
	c-0.741-0.914-1.547-1.782-2.422-2.582c-1.68-1.536-3.867-3.4-6.354-3.46c-1.924-0.047-2.742,1.838-2.031,3.251
	c0.846,1.682,3.005,2.902,4.322,4.299c1.008,1.068,1.906,2.218,2.702,3.426c-2.337,3.702-3.938,7.792-4.608,11.822
	c-0.148,0.892,1.245,1.302,1.512,0.383c1.021-3.519,2.425-6.954,4.317-10.157c1.93,3.605,2.913,7.577,3.599,11.527
	c0.159,0.913,1.223,1.818,2.182,2.004c0.906,0.176,1.6,0.12,2.407-0.289c1.314-0.666,1.654-1.989,1.436-3.241
	c-0.856-4.898-2.339-9.778-5.029-14.112c-0.245-0.395-0.504-0.785-0.769-1.171C86.616,28.995,88.751,27.007,90.965,25.056z"/>
</svg>
